# xmcd
#
# Track frame offsets: 
#        150
#        19689
#        39791
#        55074
#        72297
#        94374
#        110587
#        124377
#        142465
#        167236
#        183633
#        198996
#        210179
#        225016
#        243922
#        255760
#        276405
#        293617
#        311018
#
# Disc length: 4432 seconds
#
# Revision: 0
# Processed by: cddbd v1.5.2PL0 Copyright (c) Steve Scherf et al.
# Submitted via: ExactAudioCopy v0.95b4
#
DISCID=0e114e13
DTITLE=Various Artist - XXXL 17 Шансон
DYEAR=2007
DGENRE=Chanson
TTITLE0=Успенская Любовь/К Единственному Нежному
TTITLE1=Бутырка/Слёзы Осени
TTITLE2=Михайлов Стас/Мама
TTITLE3=Сирень Саша/Високосный Год
TTITLE4=Мафик/Обыкновенное Чудо
TTITLE5=Звинцов Александп/Тебя Искал
TTITLE6=Ори!Зона!/Надо Верить
TTITLE7=Гулько Михаил/Столыпин
TTITLE8=Наговицын Сергей/Белый Снег
TTITLE9=Кемеровский Евгений/Хорошие Манеры
TTITLE10=Волк/Срока Кончаются
TTITLE11=Бобков Слава/Война Окончена
TTITLE12=Назар/Зашаманила
TTITLE13=Бумер/Пацаны
TTITLE14=Высоцкий Владимир/Рецидивист
TTITLE15=Безъязыков Олег/Двое под Зонтиком (& Каневская Ольга)
TTITLE16=Амирамов Ефрем/Только Не Ты
TTITLE17=Беломорканал/Не В Деньгах Счастье
TTITLE18=Мафик/Шито-Крыто
EXTD=
EXTT0=
EXTT1=
EXTT2=
EXTT3=
EXTT4=
EXTT5=
EXTT6=
EXTT7=
EXTT8=
EXTT9=
EXTT10=
EXTT11=
EXTT12=
EXTT13=
EXTT14=
EXTT15=
EXTT16=
EXTT17=
EXTT18=
PLAYORDER=
